<?xml version="1.0" encoding="utf-8"?>
<!-- Generator: Adobe Illustrator 19.1.0, SVG Export Plug-In . SVG Version: 6.00 Build 0)  -->
<svg version="1.1" id="Layer_1" xmlns="http://www.w3.org/2000/svg" xmlns:xlink="http://www.w3.org/1999/xlink" x="0px" y="0px"
	 viewBox="0 0 121 44" style="enable-background:new 0 0 121 44;" xml:space="preserve">
<style type="text/css">
	.st0{fill:#B91222;}
	.st1{fill:#FFFFFF;}
	.st2{fill:none;}
</style>
<rect x="4.2" y="4.5" class="st0" width="111" height="35"/>
<rect x="15.3" y="7.7" class="st1" width="3.4" height="3.5"/>
<path class="st1" d="M20.1,16.1H19l-1.5,8.2h4.2L20.1,16.1z M22.9,32.2l-0.8-4.4h-5.2l-0.8,4.4h-5.6l3.8-17.3c0.4-2,1-2.3,3.3-2.3h4
	c2.3,0,2.7,0.2,3.2,2.3l3.8,17.3H22.9z"/>
<rect x="5.2" y="4.5" class="st2" width="111" height="35"/>
<rect x="20.4" y="7.7" class="st1" width="3.4" height="3.5"/>
<rect x="66" y="12.7" class="st1" width="3.4" height="3.5"/>
<rect x="71.1" y="12.7" class="st1" width="3.4" height="3.5"/>
<path class="st1" d="M35,21.1v11.1h-5.1V21.3c0-2.1,1-3.5,3.5-3.5h6.3v3.3H35z"/>
<rect x="5.2" y="4.5" class="st2" width="111" height="35"/>
<path class="st1" d="M40.5,17.8h5.1v14.4h-5.1V17.8z M40.5,12.9h5.1v3.6h-5.1V12.9z"/>
<path class="st1" d="M56.3,21.1h-3.9V29h3.9V21.1z M57.9,32.2h-5.4v5.2h-5V17.8h10.5c2.5,0,3.5,1.3,3.5,3.5v7.3
	C61.4,31,60.4,32.2,57.9,32.2"/>
<path class="st1" d="M71.9,26.2h-4.1v2.9h4.1V26.2z M74.6,32.2c0,0-3.5,0.1-4.2,0.1c-0.7,0-4.1-0.1-4.1-0.1c-2.2,0-3.5-1.1-3.5-3.5
	v-1.9c0-3,1.9-3.5,3.5-3.5h5.4V21h-7.7v-3.1h9.3c2.9,0,3.5,1.7,3.5,3.5v7.8C76.9,31.5,76.2,32.2,74.6,32.2"/>
<path class="st1" d="M87.1,20.9h-3.6v3.3h3.6V20.9z M83.6,26.1v2.7h8v3.5H82c-2.9,0-3.5-1.9-3.5-3.5v-7.2c0-2.3,1.1-3.6,3.5-3.7
	c0,0,2.7-0.1,3.5-0.1s3.4,0.1,3.4,0.1c2.4,0,3.4,1.2,3.4,3.5v4.7H83.6z"/>
<polygon class="st1" points="104.5,32.2 97.9,32.2 93.2,17.8 98.7,17.8 101.2,27.7 101.6,27.7 104.1,17.8 109.2,17.8 "/>
</svg>
