<?xml version="1.0" encoding="utf-8"?>
<!-- Generator: Adobe Illustrator 22.1.0, SVG Export Plug-In . SVG Version: 6.00 Build 0)  -->
<svg version="1.1" id="Layer_1" xmlns="http://www.w3.org/2000/svg" xmlns:xlink="http://www.w3.org/1999/xlink" x="0px" y="0px"
	 viewBox="0 0 540 831.39" style="enable-background:new 0 0 540 831.39;" xml:space="preserve">
<style type="text/css">
	.st0{opacity:0.06;fill:#BCBEC0;stroke:#FFFFFF;stroke-width:0.5;stroke-miterlimit:10;}
	.st1{opacity:0.06;fill:#D1D3D4;stroke:#FFFFFF;stroke-width:0.5;stroke-miterlimit:10;}
	.st2{opacity:0.06;fill:#E6E7E8;stroke:#FFFFFF;stroke-width:0.5;stroke-miterlimit:10;}
	.st3{opacity:0.06;fill:#A7A9AC;stroke:#FFFFFF;stroke-width:0.5;stroke-miterlimit:10;}
	.st4{opacity:0.06;fill:#F1F2F2;stroke:#FFFFFF;stroke-width:0.5;stroke-miterlimit:10;}
</style>
<polygon class="st0" points="225,51.96 225,51.96 180,77.94 "/>
<polygon class="st1" points="270,701.48 315,675.5 270,701.48 "/>
<polygon class="st2" points="225,207.85 180,233.83 225,207.85 "/>
<polygon class="st1" points="180,701.48 225,675.5 180,701.48 "/>
<polygon class="st3" points="225,675.5 270,649.52 225,675.5 "/>
<polygon class="st0" points="90,77.94 45,103.92 90,77.94 "/>
<polygon class="st1" points="270,181.87 225,207.85 270,181.87 "/>
<polygon class="st3" points="360,181.87 315,207.85 360,181.87 "/>
<polygon class="st0" points="315,51.96 315,51.96 270,77.94 "/>
<polygon class="st1" points="180,129.9 135,155.88 180,129.9 "/>
<polygon class="st1" points="360,129.91 315,155.89 360,129.91 "/>
<polygon class="st0" points="360,701.49 405,675.51 360,701.49 "/>
<polygon class="st3" points="135,51.96 135,51.96 90,77.94 "/>
<polygon class="st0" points="405,103.92 360,129.91 405,103.92 "/>
<polygon class="st3" points="45,0 0,25.98 45,0 "/>
<polygon class="st4" points="180,25.98 135,51.96 180,25.98 "/>
<polygon class="st4" points="270,25.98 225,51.96 270,25.98 "/>
<polygon class="st1" points="270,805.41 315,779.43 270,805.41 "/>
<polygon class="st0" points="360,805.41 405,779.43 360,805.41 "/>
<polygon class="st1" points="450,805.41 495,779.43 450,805.41 "/>
<polygon class="st0" points="360,25.98 315,51.96 360,25.98 "/>
<polygon class="st0" points="270,233.83 225,259.81 270,233.83 "/>
<polygon class="st4" points="90,649.52 45,675.5 45,675.5 "/>
<polygon class="st2" points="90,545.6 45,571.58 45,571.58 "/>
<polygon class="st0" points="90,25.98 45,51.96 90,25.98 "/>
<polygon class="st1" points="45,831.39 45,831.39 45,831.39 "/>
<polygon class="st4" points="135,779.43 180,753.45 135,779.43 "/>
<polygon class="st0" points="90,181.87 45,207.85 90,181.87 "/>
<polygon class="st1" points="360,77.94 315,103.92 360,77.94 "/>
<polygon class="st2" points="405,51.96 360,77.94 405,51.96 "/>
<polygon class="st1" points="90,129.9 45,155.88 90,129.9 "/>
<polygon class="st2" points="225,779.43 270,753.45 225,779.43 "/>
<polygon class="st2" points="90,233.83 45,259.81 90,233.83 "/>
<polygon class="st1" points="135,103.92 90,129.9 135,103.92 "/>
<polygon class="st0" points="180,805.41 225,779.43 180,805.41 "/>
<polygon class="st1" points="270,77.94 225,103.92 270,77.94 "/>
<polygon class="st2" points="180,77.94 135,103.92 180,77.94 "/>
<polygon class="st4" points="270,129.9 225,155.88 270,129.9 "/>
<polygon class="st1" points="405,259.81 450,233.83 450,233.83 "/>
<polygon class="st1" points="405,207.85 450,181.87 450,181.87 "/>
<polygon class="st0" points="450,77.94 450,77.94 405,103.92 "/>
<polygon class="st4" points="405,155.89 450,129.91 450,129.91 "/>
<polygon class="st0" points="450,597.56 495,571.58 450,597.56 "/>
<polygon class="st1" points="405,571.58 450,545.6 405,571.58 "/>
<polygon class="st1" points="180,545.6 135,571.58 135,571.58 "/>
<polygon class="st0" points="180,181.87 135,207.85 180,181.87 "/>
<polygon class="st2" points="180,233.83 135,259.81 180,233.83 "/>
<polygon class="st1" points="180,649.52 135,675.5 135,675.5 "/>
<polygon class="st3" points="405,675.51 450,649.53 405,675.51 "/>
<polygon class="st2" points="135,259.81 90,285.79 135,259.81 "/>
<polygon class="st0" points="135,675.5 90,701.48 90,701.48 "/>
<polygon class="st2" points="135,571.58 90,597.56 90,597.56 "/>
<polygon class="st0" points="315,103.92 315,103.92 270,129.9 "/>
<polygon class="st0" points="135,779.43 90,805.41 90,805.41 "/>
<polygon class="st2" points="360,753.45 315,779.43 315,779.43 "/>
<polygon class="st3" points="135,155.88 90,181.87 135,155.88 "/>
<polygon class="st0" points="225,103.92 225,103.92 180,129.9 "/>
<polygon class="st1" points="450,701.49 495,675.51 450,701.49 "/>
<polygon class="st1" points="135,207.85 90,233.83 135,207.85 "/>
<polygon class="st0" points="450,233.83 495,207.85 495,207.85 "/>
<polygon class="st3" points="225,155.89 225,155.89 180,181.87 "/>
<polygon class="st0" points="315,207.85 315,207.85 270,233.83 "/>
<polygon class="st3" points="225,571.58 180,597.56 180,597.56 "/>
<polygon class="st2" points="450,25.98 450,25.98 405,51.96 "/>
<polygon class="st1" points="450,77.94 495,51.96 495,51.96 "/>
<polygon class="st2" points="225,259.81 180,285.79 225,259.81 "/>
<polygon class="st0" points="270,545.6 225,571.58 225,571.58 "/>
<polygon class="st4" points="315,259.81 360,233.83 360,233.83 "/>
<polygon class="st3" points="450,753.45 405,779.43 405,779.43 "/>
<polygon class="st1" points="315,571.58 360,545.6 315,571.58 "/>
<polygon class="st3" points="360,649.52 315,675.5 315,675.5 "/>
<polygon class="st1" points="360,181.87 405,155.89 405,155.89 "/>
<polygon class="st0" points="450,285.79 495,259.81 495,259.81 "/>
<polygon class="st3" points="315,155.89 315,155.89 270,181.87 "/>
<polygon class="st2" points="360,233.83 405,207.85 405,207.85 "/>
<polygon class="st2" points="360,285.79 405,259.81 405,259.81 "/>
<polygon class="st2" points="360,597.56 405,571.58 360,597.56 "/>
<polygon class="st4" points="450,181.87 495,155.89 495,155.89 "/>
<polygon class="st1" points="450,129.91 495,103.93 495,103.93 "/>
<polygon class="st2" points="270,597.56 315,571.58 270,597.56 "/>
<polygon class="st1" points="315,259.81 315,259.81 270,285.79 "/>
<polygon class="st1" points="135,0 135,0 90,25.98 "/>
<polygon class="st2" points="225,831.39 225,831.39 225,831.39 "/>
<polygon class="st3" points="495,675.51 540,649.53 495,675.51 "/>
<polygon class="st1" points="495,155.89 540,129.91 540,129.91 "/>
<polygon class="st4" points="45,259.81 0,285.79 45,259.81 "/>
<polygon class="st1" points="225,0 225,0 180,25.98 "/>
<polygon class="st4" points="360,25.98 405,0 405,0 405,0 405,0 "/>
<polygon class="st2" points="45,155.88 0,181.86 45,155.88 "/>
<polygon class="st1" points="450,25.98 495,0 495,0 495,0 495,0 "/>
<polygon class="st0" points="495,51.96 540,25.98 540,25.98 "/>
<polygon class="st1" points="495,259.81 540,233.83 540,233.83 "/>
<polygon class="st2" points="315,0 315,0 270,25.98 "/>
<polygon class="st2" points="495,779.43 540,753.45 495,779.43 "/>
<polygon class="st3" points="495,103.93 540,77.95 540,77.95 "/>
<polygon class="st3" points="495,571.58 540,545.6 495,571.58 "/>
<polygon class="st1" points="45,103.92 0,129.9 45,103.92 "/>
<polygon class="st0" points="45,779.43 0,805.41 0,805.41 "/>
<polygon class="st2" points="90,753.45 45,779.43 45,779.43 "/>
<polygon class="st0" points="45,207.85 0,233.83 45,207.85 "/>
<polygon class="st1" points="495,207.85 540,181.87 540,181.87 "/>
<polygon class="st2" points="45,51.96 0,77.94 45,51.96 "/>
<polygon class="st0" points="45,675.5 0,701.48 0,701.48 "/>
<polygon class="st4" points="135,831.39 135,831.39 135,831.39 "/>
<polygon class="st3" points="45,571.58 0,597.56 0,597.56 "/>
<polygon class="st3" points="495,51.96 540,25.98 495,0 "/>
<polygon class="st2" points="495,103.93 540,77.95 495,51.96 "/>
<polygon class="st0" points="495,155.89 540,129.91 495,103.93 "/>
<polygon class="st3" points="495,207.85 540,181.87 495,155.89 "/>
<polygon class="st1" points="495,259.81 540,233.83 495,207.85 "/>
<polygon class="st1" points="495,311.77 540,285.79 495,259.81 "/>
<polygon class="st4" points="495,363.74 540,337.75 495,311.77 "/>
<polygon class="st3" points="495,415.7 540,389.72 495,363.74 "/>
<polygon class="st1" points="495,467.66 540,441.68 495,415.7 "/>
<polygon class="st2" points="495,519.62 540,493.64 495,467.66 "/>
<polygon class="st1" points="495,571.58 540,545.6 495,519.62 "/>
<polygon class="st0" points="495,623.55 540,597.56 495,571.58 "/>
<polygon class="st1" points="495,571.58 495,571.58 495,571.58 "/>
<polygon class="st0" points="495,675.51 540,649.53 495,623.55 "/>
<polygon class="st0" points="495,727.47 540,701.49 495,675.51 "/>
<polygon class="st2" points="495,675.51 495,675.51 495,675.51 "/>
<polygon class="st2" points="495,779.43 540,753.45 495,727.47 "/>
<polygon class="st0" points="495,831.39 495,831.39 540,805.41 495,779.43 "/>
<polygon class="st1" points="495,779.43 495,779.43 495,779.43 "/>
<polygon class="st0" points="540,831.39 540,805.41 495,831.39 "/>
<polygon class="st0" points="495,779.43 540,805.41 540,753.45 495,779.43 "/>
<polygon class="st2" points="540,753.45 540,701.49 495,727.47 "/>
<polygon class="st2" points="495,675.51 540,701.49 540,649.53 495,675.51 "/>
<polygon class="st0" points="540,649.53 540,597.56 495,623.55 "/>
<polygon class="st2" points="495,571.58 540,597.56 540,545.6 495,571.58 "/>
<polygon class="st1" points="540,545.6 540,493.64 495,519.62 "/>
<polygon class="st0" points="540,493.64 540,441.68 495,467.66 "/>
<polygon class="st2" points="540,441.68 540,389.72 495,415.7 "/>
<polygon class="st1" points="540,389.72 540,337.75 495,363.74 "/>
<polygon class="st3" points="540,337.75 540,285.79 495,311.77 "/>
<polygon class="st3" points="540,285.79 540,233.83 495,259.81 "/>
<polygon class="st0" points="540,233.83 540,233.83 540,181.87 495,207.85 "/>
<polygon class="st1" points="540,181.87 540,181.87 540,129.91 495,155.89 "/>
<polygon class="st1" points="540,129.91 540,129.91 540,77.95 495,103.93 "/>
<polygon class="st0" points="540,77.95 540,77.95 540,25.98 495,51.96 "/>
<polygon class="st3" points="540,25.98 540,25.98 540,0 495,0 495,0 "/>
<polygon class="st2" points="450,25.98 495,0 495,0 450,0 "/>
<polygon class="st2" points="450,77.94 495,51.96 450,25.98 "/>
<polygon class="st1" points="450,129.91 495,103.93 450,77.94 "/>
<polygon class="st1" points="450,181.87 495,155.89 450,129.91 "/>
<polygon class="st2" points="450,233.83 495,207.85 450,181.87 "/>
<polygon class="st3" points="495,259.81 450,233.83 450,285.79 "/>
<polygon class="st2" points="450,337.75 495,311.77 450,285.79 "/>
<polygon class="st1" points="450,389.72 495,363.74 450,337.75 "/>
<polygon class="st1" points="450,441.68 495,415.7 450,389.72 "/>
<polygon class="st2" points="450,493.64 495,467.66 450,441.68 "/>
<polygon class="st0" points="450,545.6 495,519.62 450,493.64 "/>
<polygon class="st2" points="450,597.56 495,571.58 450,545.6 "/>
<polygon class="st3" points="450,649.53 495,623.55 450,597.56 "/>
<polygon class="st0" points="450,597.56 450,597.56 450,597.56 "/>
<polygon class="st0" points="450,701.49 495,675.51 450,649.53 "/>
<polygon class="st0" points="450,753.45 495,727.47 450,701.49 "/>
<polygon class="st2" points="450,701.49 450,701.49 450,701.49 "/>
<polygon class="st2" points="450,805.41 495,779.43 450,753.45 "/>
<polygon class="st2" points="450,805.41 450,805.41 450,805.41 "/>
<polygon class="st0" points="450,831.39 495,831.39 450,805.41 "/>
<polygon class="st4" points="495,779.43 450,805.41 450,805.41 495,831.39 495,831.39 495,779.43 "/>
<polygon class="st0" points="495,779.43 495,727.47 450,753.45 "/>
<polygon class="st2" points="450,701.49 495,727.47 495,675.51 495,675.51 450,701.49 "/>
<polygon class="st1" points="495,675.51 495,623.55 450,649.53 "/>
<polygon class="st0" points="450,597.56 495,623.55 495,571.58 495,571.58 450,597.56 "/>
<polygon class="st2" points="495,571.58 495,519.62 450,545.6 "/>
<polygon class="st1" points="495,519.62 495,467.66 450,493.64 "/>
<polygon class="st1" points="495,467.66 495,415.7 450,441.68 "/>
<polygon class="st4" points="495,415.7 495,363.74 450,389.72 "/>
<polygon class="st0" points="495,363.74 495,311.77 450,337.75 "/>
<polygon class="st2" points="495,311.77 495,259.81 450,285.79 "/>
<polygon class="st1" points="495,259.81 495,259.81 495,207.85 450,233.83 "/>
<polygon class="st1" points="495,207.85 495,207.85 495,155.89 450,181.87 "/>
<polygon class="st0" points="495,155.89 495,155.89 495,103.93 450,129.91 "/>
<polygon class="st1" points="495,103.93 495,103.93 495,51.96 450,77.94 "/>
<polygon class="st0" points="495,51.96 495,0 450,25.98 495,51.96 "/>
<polygon class="st1" points="405,51.96 450,25.98 405,0 "/>
<polygon class="st0" points="405,103.92 450,77.94 405,51.96 "/>
<polygon class="st1" points="405,155.89 450,129.91 405,103.92 "/>
<polygon class="st0" points="405,207.85 450,181.87 405,155.89 "/>
<polygon class="st2" points="405,259.81 450,233.83 405,207.85 "/>
<polygon class="st0" points="405,311.77 450,285.79 405,259.81 "/>
<polygon class="st3" points="405,363.73 450,337.75 405,311.77 "/>
<polygon class="st2" points="405,415.7 450,389.72 405,363.73 "/>
<polygon class="st2" points="405,467.66 450,441.68 405,415.7 "/>
<polygon class="st2" points="405,519.62 450,493.64 405,467.66 "/>
<polygon class="st0" points="405,571.58 450,545.6 405,519.62 "/>
<polygon class="st4" points="405,571.58 405,571.58 405,571.58 "/>
<polygon class="st0" points="405,623.54 450,597.56 405,571.58 "/>
<polygon class="st2" points="405,675.51 450,649.53 405,623.54 "/>
<polygon class="st0" points="405,727.47 450,701.49 405,675.51 "/>
<polygon class="st0" points="405,675.51 405,675.51 405,675.51 "/>
<polygon class="st0" points="405,727.47 405,779.43 450,753.45 "/>
<polygon class="st0" points="405,779.43 405,831.39 405,831.39 450,805.41 "/>
<polygon class="st1" points="405,779.43 405,779.43 405,779.43 "/>
<polygon class="st2" points="450,805.41 405,831.39 450,831.39 450,805.41 "/>
<polygon class="st0" points="405,779.43 405,779.43 450,805.41 450,753.45 "/>
<polygon class="st3" points="450,753.45 450,701.49 450,701.49 405,727.47 "/>
<polygon class="st3" points="405,675.51 450,701.49 450,649.53 405,675.51 "/>
<polygon class="st2" points="450,649.53 450,597.56 450,597.56 405,623.54 "/>
<polygon class="st1" points="405,571.58 450,597.56 450,545.6 405,571.58 "/>
<polygon class="st0" points="450,545.6 450,493.64 405,519.62 "/>
<polygon class="st1" points="450,493.64 450,441.68 405,467.66 "/>
<polygon class="st1" points="450,441.68 450,389.72 405,415.7 "/>
<polygon class="st2" points="450,389.72 450,337.75 405,363.73 "/>
<polygon class="st0" points="450,337.75 450,285.79 405,311.77 "/>
<polygon class="st1" points="450,285.79 450,233.83 405,259.81 "/>
<polygon class="st2" points="450,233.83 450,233.83 450,181.87 405,207.85 "/>
<polygon class="st3" points="450,181.87 450,181.87 450,129.91 405,155.89 "/>
<polygon class="st2" points="450,129.91 450,129.91 450,77.94 405,103.92 "/>
<polygon class="st0" points="450,77.94 450,77.94 450,25.98 405,51.96 "/>
<polygon class="st0" points="450,25.98 450,25.98 450,0 405,0 405,0 "/>
<polygon class="st1" points="360,25.98 405,0 405,0 360,0 "/>
<polygon class="st4" points="360,77.94 405,51.96 360,25.98 "/>
<polygon class="st2" points="360,129.91 405,103.92 360,77.94 "/>
<polygon class="st3" points="360,181.87 405,155.89 360,129.91 "/>
<polygon class="st0" points="360,233.83 405,207.85 360,181.87 "/>
<polygon class="st0" points="405,259.81 360,233.83 360,285.79 "/>
<polygon class="st2" points="360,337.75 405,311.77 360,285.79 "/>
<polygon class="st1" points="360,389.71 405,363.73 360,337.75 "/>
<polygon class="st1" points="360,441.68 405,415.7 360,389.71 "/>
<polygon class="st4" points="360,493.64 405,467.66 360,441.68 "/>
<polygon class="st0" points="360,545.6 405,519.62 360,493.64 "/>
<polygon class="st1" points="360,597.56 405,571.58 360,545.6 "/>
<polygon class="st3" points="360,597.56 360,597.56 360,597.56 "/>
<polygon class="st2" points="360,649.52 405,623.54 360,597.56 "/>
<polygon class="st0" points="360,701.49 405,675.51 360,649.52 "/>
<polygon class="st4" points="360,753.45 405,727.47 360,701.49 "/>
<polygon class="st0" points="360,701.49 360,701.49 360,701.49 "/>
<polygon class="st4" points="360,805.41 405,779.43 360,753.45 "/>
<polygon class="st1" points="360,831.39 405,831.39 360,805.41 "/>
<polygon class="st1" points="360,805.41 360,805.41 360,805.41 "/>
<polygon class="st1" points="405,779.43 360,805.41 360,805.41 405,831.39 405,831.39 405,779.43 "/>
<polygon class="st0" points="360,753.45 405,779.43 405,727.47 "/>
<polygon class="st2" points="405,675.51 360,701.49 360,701.49 405,727.47 405,675.51 "/>
<polygon class="st4" points="405,675.51 405,623.54 360,649.52 "/>
<polygon class="st1" points="360,597.56 405,623.54 405,571.58 405,571.58 360,597.56 "/>
<polygon class="st2" points="405,571.58 405,519.62 360,545.6 "/>
<polygon class="st0" points="405,519.62 405,467.66 360,493.64 "/>
<polygon class="st3" points="405,467.66 405,415.7 360,441.68 "/>
<polygon class="st1" points="405,415.7 405,363.73 360,389.71 "/>
<polygon class="st1" points="405,363.73 405,311.77 360,337.75 "/>
<polygon class="st1" points="405,311.77 405,259.81 360,285.79 "/>
<polygon class="st1" points="405,259.81 405,259.81 405,207.85 360,233.83 "/>
<polygon class="st2" points="405,207.85 405,207.85 405,155.89 360,181.87 "/>
<polygon class="st3" points="405,155.89 405,103.92 360,129.91 405,155.89 "/>
<polygon class="st2" points="405,103.92 405,51.96 360,77.94 405,103.92 "/>
<polygon class="st0" points="405,51.96 405,0 360,25.98 405,51.96 "/>
<polygon class="st3" points="315,51.96 360,25.98 315,0 "/>
<polygon class="st4" points="315,103.92 360,77.94 315,51.96 "/>
<polygon class="st3" points="315,155.89 360,129.91 315,103.92 "/>
<polygon class="st0" points="315,207.85 360,181.87 315,155.89 "/>
<polygon class="st2" points="315,259.81 360,233.83 315,207.85 "/>
<polygon class="st0" points="315,311.77 360,285.79 315,259.81 "/>
<polygon class="st4" points="315,363.73 360,337.75 315,311.77 "/>
<polygon class="st4" points="315,415.7 360,389.71 315,363.73 "/>
<polygon class="st0" points="315,467.66 360,441.68 315,415.7 "/>
<polygon class="st3" points="315,519.62 360,493.64 315,467.66 "/>
<polygon class="st0" points="315,571.58 360,545.6 315,519.62 "/>
<polygon class="st0" points="315,623.54 360,597.56 315,571.58 "/>
<polygon class="st4" points="315,571.58 315,571.58 315,571.58 "/>
<polygon class="st2" points="315,623.54 315,675.5 360,649.52 "/>
<polygon class="st3" points="315,675.51 315,727.47 360,701.49 "/>
<polygon class="st4" points="315,675.5 315,675.51 315,675.5 "/>
<polygon class="st0" points="315,727.47 315,779.43 360,753.45 "/>
<polygon class="st0" points="315,779.43 315,831.39 360,805.41 "/>
<polygon class="st3" points="315,779.43 315,779.43 315,779.43 "/>
<polygon class="st3" points="360,805.41 315,831.39 360,831.39 360,805.41 "/>
<polygon class="st2" points="315,779.43 315,779.43 360,805.41 360,753.45 "/>
<polygon class="st2" points="360,701.49 315,727.47 360,753.45 360,701.49 "/>
<polygon class="st2" points="315,675.5 315,675.51 360,701.49 360,649.52 "/>
<polygon class="st3" points="360,649.52 360,597.56 360,597.56 315,623.54 "/>
<polygon class="st4" points="315,571.58 360,597.56 360,545.6 315,571.58 "/>
<polygon class="st1" points="360,545.6 360,493.64 315,519.62 "/>
<polygon class="st4" points="360,493.64 360,441.68 315,467.66 "/>
<polygon class="st1" points="360,441.68 360,389.71 315,415.7 "/>
<polygon class="st3" points="360,389.71 360,337.75 315,363.73 "/>
<polygon class="st0" points="360,337.75 360,285.79 315,311.77 "/>
<polygon class="st4" points="360,285.79 360,233.83 315,259.81 "/>
<polygon class="st3" points="360,233.83 360,181.87 315,207.85 360,233.83 "/>
<polygon class="st1" points="360,181.87 360,129.91 315,155.89 360,181.87 "/>
<polygon class="st0" points="360,129.91 360,77.94 315,103.92 360,129.91 "/>
<polygon class="st0" points="360,77.94 360,25.98 315,51.96 360,77.94 "/>
<polygon class="st4" points="360,25.98 360,0 315,0 360,25.98 "/>
<polygon class="st2" points="270,25.98 315,0 270,0 "/>
<polygon class="st2" points="270,77.94 315,51.96 270,25.98 "/>
<polygon class="st0" points="270,129.9 315,103.92 270,77.94 "/>
<polygon class="st0" points="270,181.87 315,155.89 270,129.9 "/>
<polygon class="st0" points="270,233.83 315,207.85 270,181.87 "/>
<polygon class="st1" points="315,259.81 270,233.83 270,285.79 "/>
<polygon class="st3" points="270,337.75 315,311.77 270,285.79 "/>
<polygon class="st1" points="270,389.71 315,363.73 270,337.75 "/>
<polygon class="st0" points="270,441.68 315,415.7 270,389.71 "/>
<polygon class="st1" points="270,493.64 315,467.66 270,441.68 "/>
<polygon class="st3" points="270,545.6 315,519.62 270,493.64 "/>
<polygon class="st4" points="270,597.56 315,571.58 270,545.6 "/>
<polygon class="st0" points="270,597.56 270,597.56 270,597.56 "/>
<polygon class="st1" points="270,649.52 315,623.54 270,597.56 "/>
<polygon class="st1" points="270,701.48 315,675.5 270,649.52 "/>
<polygon class="st1" points="270,753.45 315,727.47 270,701.49 "/>
<polygon class="st2" points="270,701.49 270,701.48 270,701.48 "/>
<polygon class="st0" points="270,805.41 315,779.43 270,753.45 "/>
<polygon class="st4" points="270,831.39 315,831.39 270,805.41 "/>
<polygon class="st0" points="270,805.41 270,805.41 270,805.41 "/>
<polygon class="st0" points="315,779.43 270,805.41 270,805.41 315,831.39 315,779.43 "/>
<polygon class="st2" points="270,753.45 315,779.43 315,727.47 "/>
<polygon class="st2" points="315,675.5 270,701.48 270,701.49 315,727.47 315,675.51 "/>
<polygon class="st2" points="270,649.52 315,675.5 315,623.54 "/>
<polygon class="st1" points="315,571.58 270,597.56 270,597.56 315,623.54 315,571.58 "/>
<polygon class="st1" points="315,571.58 315,519.62 270,545.6 "/>
<polygon class="st4" points="315,519.62 315,467.66 270,493.64 "/>
<polygon class="st3" points="315,467.66 315,415.7 270,441.68 "/>
<polygon class="st1" points="315,415.7 315,363.73 270,389.71 "/>
<polygon class="st2" points="315,363.73 315,311.77 270,337.75 "/>
<polygon class="st4" points="315,311.77 315,259.81 270,285.79 "/>
<polygon class="st2" points="315,259.81 315,259.81 315,207.85 270,233.83 "/>
<polygon class="st3" points="315,207.85 315,207.85 315,155.89 270,181.87 "/>
<polygon class="st2" points="315,155.89 315,155.89 315,103.92 270,129.9 "/>
<polygon class="st1" points="315,103.92 315,103.92 315,51.96 270,77.94 "/>
<polygon class="st0" points="315,51.96 315,51.96 315,0 270,25.98 "/>
<polygon class="st2" points="270,25.98 225,0 225,0 225,51.96 "/>
<polygon class="st1" points="270,77.94 225,51.96 225,51.96 225,103.92 "/>
<polygon class="st1" points="270,129.9 225,103.92 225,103.92 225,155.88 "/>
<polygon class="st0" points="270,181.87 225,155.88 225,155.89 225,207.85 "/>
<polygon class="st1" points="270,233.83 225,207.85 225,207.85 225,259.81 "/>
<polygon class="st1" points="225,259.81 225,259.81 225,311.77 270,285.79 "/>
<polygon class="st3" points="225,311.77 225,311.77 225,363.73 270,337.75 "/>
<polygon class="st1" points="225,363.73 225,363.73 225,415.69 270,389.71 "/>
<polygon class="st3" points="225,415.69 225,415.7 225,467.66 270,441.68 "/>
<polygon class="st0" points="225,467.66 225,467.66 225,519.62 270,493.64 "/>
<polygon class="st1" points="225,519.62 225,519.62 225,571.58 270,545.6 "/>
<polygon class="st4" points="225,571.58 225,623.54 270,597.56 "/>
<polygon class="st4" points="225,571.58 225,571.58 225,571.58 "/>
<polygon class="st3" points="225,623.54 225,675.5 270,649.52 225,623.54 "/>
<polygon class="st1" points="225,727.47 270,701.48 225,675.5 "/>
<polygon class="st4" points="225,675.5 225,675.5 225,675.5 "/>
<polygon class="st3" points="225,727.47 225,779.43 270,753.45 225,727.47 "/>
<polygon class="st1" points="225,831.39 270,805.41 225,779.43 "/>
<polygon class="st1" points="225,779.43 225,779.43 225,779.43 "/>
<polygon class="st1" points="270,805.41 225,831.39 225,831.39 270,831.39 270,805.41 "/>
<polygon class="st2" points="225,779.43 225,779.43 270,805.41 270,753.45 "/>
<polygon class="st1" points="270,701.48 225,727.47 270,753.45 270,701.49 "/>
<polygon class="st2" points="225,675.5 225,675.5 270,701.48 270,649.52 "/>
<polygon class="st1" points="270,597.56 225,623.54 270,649.52 270,597.56 "/>
<polygon class="st1" points="270,545.6 225,571.58 225,571.58 270,597.56 "/>
<polygon class="st4" points="270,493.64 225,519.62 270,545.6 "/>
<polygon class="st0" points="270,441.68 225,467.66 270,493.64 "/>
<polygon class="st3" points="270,389.71 225,415.69 270,441.68 "/>
<polygon class="st0" points="270,337.75 225,363.73 270,389.71 "/>
<polygon class="st0" points="270,285.79 225,311.77 270,337.75 "/>
<polygon class="st4" points="270,233.83 225,259.81 270,285.79 "/>
<polygon class="st0" points="270,233.83 270,181.87 225,207.85 270,233.83 "/>
<polygon class="st3" points="270,181.87 270,129.9 225,155.88 270,181.87 "/>
<polygon class="st3" points="270,129.9 270,77.94 225,103.92 270,129.9 "/>
<polygon class="st3" points="270,77.94 270,25.98 225,51.96 270,77.94 "/>
<polygon class="st3" points="270,25.98 270,0 225,0 270,25.98 "/>
<polygon class="st1" points="180,25.98 225,0 180,0 "/>
<polygon class="st4" points="180,77.94 225,51.96 180,25.98 "/>
<polygon class="st3" points="180,129.9 225,103.92 180,77.94 "/>
<polygon class="st2" points="180,181.87 225,155.89 180,129.9 "/>
<polygon class="st3" points="180,181.87 180,233.83 225,207.85 "/>
<polygon class="st0" points="180,233.83 180,285.79 225,259.81 "/>
<polygon class="st0" points="180,285.79 180,337.75 225,311.77 "/>
<polygon class="st0" points="180,337.75 180,389.71 225,363.73 "/>
<polygon class="st0" points="180,389.71 180,441.68 225,415.7 "/>
<polygon class="st0" points="180,441.68 180,493.64 225,467.66 "/>
<polygon class="st1" points="180,493.64 180,545.6 225,519.62 "/>
<polygon class="st4" points="180,545.6 180,597.56 225,571.58 "/>
<polygon class="st1" points="180,597.56 180,597.56 180,597.56 "/>
<polygon class="st2" points="180,597.56 180,649.52 225,623.54 "/>
<polygon class="st2" points="180,701.48 225,675.5 180,649.52 "/>
<polygon class="st4" points="180,701.49 180,701.48 180,701.48 "/>
<polygon class="st0" points="180,753.45 225,727.47 180,701.49 "/>
<polygon class="st1" points="180,805.41 225,779.43 180,753.45 "/>
<polygon class="st0" points="180,831.39 225,831.39 180,805.41 "/>
<polygon class="st0" points="180,805.41 180,805.41 180,805.41 "/>
<polygon class="st0" points="225,779.43 180,805.41 180,805.41 225,831.39 225,831.39 "/>
<polygon class="st2" points="225,727.47 180,753.45 225,779.43 225,779.43 "/>
<polygon class="st2" points="225,675.5 180,701.48 180,701.49 225,727.47 225,727.47 "/>
<polygon class="st1" points="225,623.54 180,649.52 225,675.5 225,675.5 "/>
<polygon class="st3" points="225,623.54 225,571.58 180,597.56 180,597.56 225,623.54 "/>
<polygon class="st0" points="225,571.58 225,519.62 180,545.6 225,571.58 "/>
<polygon class="st1" points="225,519.62 225,467.66 180,493.64 225,519.62 "/>
<polygon class="st1" points="225,467.66 225,415.7 180,441.68 225,467.66 "/>
<polygon class="st0" points="225,415.69 225,363.73 180,389.71 225,415.7 "/>
<polygon class="st1" points="225,363.73 225,311.77 180,337.75 225,363.73 "/>
<polygon class="st1" points="225,311.77 225,259.81 180,285.79 225,311.77 "/>
<polygon class="st0" points="225,259.81 225,259.81 225,207.85 180,233.83 225,259.81 "/>
<polygon class="st4" points="225,207.85 225,207.85 225,207.85 225,155.89 180,181.87 "/>
<polygon class="st0" points="225,155.89 225,155.89 225,155.88 225,103.92 180,129.9 "/>
<polygon class="st4" points="225,103.92 225,103.92 225,103.92 225,51.96 180,77.94 "/>
<polygon class="st1" points="225,51.96 225,51.96 225,51.96 225,0 180,25.98 "/>
<polygon class="st3" points="135,51.96 180,25.98 135,0 135,0 "/>
<polygon class="st1" points="135,103.92 180,77.94 135,51.96 "/>
<polygon class="st2" points="135,155.88 180,129.9 135,103.92 "/>
<polygon class="st2" points="135,155.88 135,207.85 180,181.87 "/>
<polygon class="st0" points="135,207.85 135,259.81 180,233.83 "/>
<polygon class="st1" points="135,259.81 135,311.77 180,285.79 "/>
<polygon class="st1" points="135,311.77 135,363.73 180,337.75 "/>
<polygon class="st4" points="135,363.73 135,415.69 180,389.71 "/>
<polygon class="st1" points="135,415.69 135,467.66 180,441.68 "/>
<polygon class="st2" points="135,467.66 135,519.62 180,493.64 "/>
<polygon class="st1" points="135,519.62 135,571.58 180,545.6 "/>
<polygon class="st4" points="135,571.58 135,623.54 180,597.56 "/>
<polygon class="st1" points="135,571.58 135,571.58 135,571.58 "/>
<polygon class="st2" points="135,623.54 135,675.5 180,649.52 "/>
<polygon class="st4" points="135,675.5 135,675.5 135,675.5 "/>
<polygon class="st1" points="135,675.5 135,727.47 180,701.48 "/>
<polygon class="st3" points="135,779.43 180,753.45 135,727.47 "/>
<polygon class="st1" points="135,831.39 180,805.41 135,779.43 "/>
<polygon class="st0" points="135,779.43 135,779.43 135,779.43 "/>
<polygon class="st0" points="180,805.41 135,831.39 135,831.39 180,831.39 180,805.41 "/>
<polygon class="st0" points="135,779.43 135,779.43 180,805.41 180,753.45 "/>
<polygon class="st1" points="180,701.48 135,727.47 180,753.45 180,701.49 "/>
<polygon class="st0" points="180,649.52 135,675.5 135,675.5 180,701.48 "/>
<polygon class="st2" points="180,597.56 180,597.56 135,623.54 180,649.52 "/>
<polygon class="st0" points="180,545.6 135,571.58 135,571.58 180,597.56 "/>
<polygon class="st1" points="180,493.64 135,519.62 180,545.6 "/>
<polygon class="st0" points="180,441.68 135,467.66 180,493.64 "/>
<polygon class="st0" points="180,389.71 135,415.69 180,441.68 "/>
<polygon class="st3" points="180,337.75 135,363.73 180,389.71 "/>
<polygon class="st3" points="180,285.79 135,311.77 180,337.75 "/>
<polygon class="st2" points="180,233.83 135,259.81 180,285.79 "/>
<polygon class="st4" points="180,233.83 180,181.87 135,207.85 180,233.83 "/>
<polygon class="st0" points="180,181.87 180,129.9 135,155.88 180,181.87 "/>
<polygon class="st0" points="180,129.9 180,77.94 135,103.92 180,129.9 "/>
<polygon class="st0" points="180,77.94 180,25.98 135,51.96 180,77.94 "/>
<polygon class="st4" points="180,25.98 180,0 135,0 180,25.98 "/>
<polygon class="st3" points="90,25.98 135,0 90,0 "/>
<polygon class="st0" points="90,77.94 135,51.96 90,25.98 "/>
<polygon class="st2" points="90,77.94 90,129.9 135,103.92 "/>
<polygon class="st0" points="90,129.9 90,181.87 135,155.88 "/>
<polygon class="st0" points="90,181.87 90,233.83 135,207.85 "/>
<polygon class="st0" points="90,233.83 90,285.79 135,259.81 "/>
<polygon class="st0" points="90,285.79 90,337.75 135,311.77 "/>
<polygon class="st0" points="90,337.75 90,389.71 135,363.73 "/>
<polygon class="st0" points="90,389.71 90,441.67 135,415.69 "/>
<polygon class="st1" points="90,441.67 90,493.64 135,467.66 "/>
<polygon class="st2" points="90,493.64 90,545.6 135,519.62 "/>
<polygon class="st2" points="90,545.6 90,597.56 135,571.58 "/>
<polygon class="st1" points="90,597.56 90,597.56 90,597.56 "/>
<polygon class="st0" points="90,597.56 90,649.52 135,623.54 "/>
<polygon class="st2" points="90,649.52 90,701.48 135,675.5 "/>
<polygon class="st1" points="90,701.48 90,753.45 135,727.47 "/>
<polygon class="st4" points="90,701.48 90,701.48 90,701.48 "/>
<polygon class="st1" points="90,753.45 90,805.41 135,779.43 "/>
<polygon class="st2" points="90,805.41 90,831.39 135,831.39 135,831.39 "/>
<polygon class="st1" points="90,805.41 90,805.41 90,805.41 "/>
<polygon class="st4" points="135,779.43 90,805.41 90,805.41 135,831.39 135,779.43 "/>
<polygon class="st1" points="135,727.47 90,753.45 135,779.43 "/>
<polygon class="st3" points="135,675.5 135,675.5 90,701.48 90,701.48 135,727.47 "/>
<polygon class="st3" points="135,623.54 90,649.52 135,675.5 "/>
<polygon class="st2" points="135,571.58 135,571.58 90,597.56 90,597.56 135,623.54 "/>
<polygon class="st0" points="135,519.62 90,545.6 135,571.58 "/>
<polygon class="st1" points="135,467.66 90,493.64 135,519.62 "/>
<polygon class="st0" points="135,415.69 90,441.67 135,467.66 "/>
<polygon class="st1" points="135,363.73 90,389.71 135,415.69 "/>
<polygon class="st2" points="135,311.77 90,337.75 135,363.73 "/>
<polygon class="st3" points="135,259.81 90,285.79 135,311.77 "/>
<polygon class="st2" points="135,259.81 135,207.85 90,233.83 135,259.81 "/>
<polygon class="st2" points="135,207.85 135,155.88 90,181.87 135,207.85 "/>
<polygon class="st0" points="135,155.88 135,103.92 90,129.9 135,155.88 "/>
<polygon class="st0" points="135,103.92 135,103.92 135,51.96 90,77.94 "/>
<polygon class="st1" points="135,51.96 135,51.96 135,0 135,0 90,25.98 "/>
<polygon class="st4" points="45,51.96 90,25.98 45,0 45,0 "/>
<polygon class="st0" points="45,51.96 45,103.92 90,77.94 "/>
<polygon class="st3" points="45,103.92 45,155.88 90,129.9 "/>
<polygon class="st3" points="45,155.88 45,207.85 90,181.87 "/>
<polygon class="st4" points="45,207.85 45,259.81 90,233.83 "/>
<polygon class="st4" points="45,259.81 45,311.77 90,285.79 "/>
<polygon class="st1" points="45,311.77 45,363.73 90,337.75 "/>
<polygon class="st1" points="45,363.73 45,415.69 90,389.71 "/>
<polygon class="st4" points="45,415.69 45,467.65 90,441.67 "/>
<polygon class="st0" points="45,467.65 45,519.62 90,493.64 "/>
<polygon class="st4" points="45,519.62 45,571.58 90,545.6 "/>
<polygon class="st4" points="45,571.58 45,623.54 90,597.56 "/>
<polygon class="st0" points="45,571.58 45,571.58 45,571.58 "/>
<polygon class="st2" points="45,623.54 45,675.5 90,649.52 "/>
<polygon class="st3" points="45,675.5 45,675.5 45,675.5 "/>
<polygon class="st2" points="45,675.5 45,727.47 90,701.48 "/>
<polygon class="st0" points="45,727.47 45,779.43 90,753.45 "/>
<polygon class="st2" points="45,779.43 45,779.43 45,779.43 "/>
<polygon class="st1" points="45,779.43 45,831.39 90,805.41 "/>
<polygon class="st4" points="90,805.41 45,831.39 45,831.39 90,831.39 90,805.41 "/>
<polygon class="st4" points="90,753.45 45,779.43 45,779.43 90,805.41 "/>
<polygon class="st1" points="90,701.48 90,701.48 45,727.47 90,753.45 "/>
<polygon class="st1" points="90,649.52 45,675.5 45,675.5 90,701.48 "/>
<polygon class="st1" points="90,597.56 90,597.56 45,623.54 90,649.52 "/>
<polygon class="st0" points="90,545.6 45,571.58 45,571.58 90,597.56 "/>
<polygon class="st1" points="90,493.64 45,519.62 90,545.6 "/>
<polygon class="st2" points="90,441.67 45,467.65 90,493.64 "/>
<polygon class="st1" points="90,389.71 45,415.69 90,441.67 "/>
<polygon class="st0" points="90,337.75 45,363.73 90,389.71 "/>
<polygon class="st1" points="90,285.79 45,311.77 90,337.75 "/>
<polygon class="st0" points="90,233.83 45,259.81 90,285.79 "/>
<polygon class="st3" points="90,233.83 90,181.87 45,207.85 90,233.83 "/>
<polygon class="st2" points="90,181.87 90,129.9 45,155.88 90,181.87 "/>
<polygon class="st1" points="90,129.9 90,77.94 45,103.92 90,129.9 "/>
<polygon class="st2" points="90,77.94 90,25.98 45,51.96 90,77.94 "/>
<polygon class="st0" points="90,25.98 90,0 45,0 90,25.98 "/>
<polygon class="st1" points="0,0 0,25.98 45,0 "/>
<polygon class="st0" points="0,25.98 0,77.94 45,51.96 "/>
<polygon class="st0" points="0,77.94 0,129.9 45,103.92 "/>
<polygon class="st3" points="0,129.9 0,181.86 45,155.88 "/>
<polygon class="st0" points="0,181.86 0,233.83 45,207.85 "/>
<polygon class="st4" points="0,233.83 0,285.79 45,259.81 "/>
<polygon class="st2" points="0,285.79 0,337.75 45,311.77 "/>
<polygon class="st1" points="0,337.75 0,389.71 45,363.73 "/>
<polygon class="st1" points="0,389.71 0,441.67 45,415.69 "/>
<polygon class="st2" points="0,441.67 0,493.64 45,467.65 "/>
<polygon class="st1" points="0,493.64 0,545.6 45,519.62 "/>
<polygon class="st2" points="0,545.6 0,597.56 45,571.58 "/>
<polygon class="st1" points="0,597.56 0,649.52 45,623.54 "/>
<polygon class="st2" points="0,597.56 0,597.56 0,597.56 "/>
<polygon class="st1" points="0,649.52 0,701.48 45,675.5 "/>
<polygon class="st1" points="0,701.48 0,701.48 0,701.48 "/>
<polygon class="st1" points="0,701.48 0,753.45 45,727.47 "/>
<polygon class="st0" points="0,753.45 0,805.41 45,779.43 "/>
<polygon class="st3" points="0,805.41 0,805.41 0,805.41 "/>
<polygon class="st4" points="45,831.39 0,805.41 0,831.39 45,831.39 "/>
<polygon class="st2" points="45,779.43 45,779.43 0,805.41 0,805.41 45,831.39 "/>
<polygon class="st0" points="45,727.47 0,753.45 45,779.43 "/>
<polygon class="st2" points="45,675.5 45,675.5 0,701.48 0,701.48 45,727.47 "/>
<polygon class="st4" points="45,623.54 0,649.52 45,675.5 "/>
<polygon class="st4" points="45,571.58 45,571.58 0,597.56 0,597.56 45,623.54 "/>
<polygon class="st2" points="45,519.62 0,545.6 45,571.58 "/>
<polygon class="st4" points="45,467.65 0,493.64 45,519.62 "/>
<polygon class="st3" points="45,415.69 0,441.67 45,467.65 "/>
<polygon class="st2" points="45,363.73 0,389.71 45,415.69 "/>
<polygon class="st0" points="45,311.77 0,337.75 45,363.73 "/>
<polygon class="st1" points="45,259.81 0,285.79 45,311.77 "/>
<polygon class="st0" points="45,259.81 45,207.85 0,233.83 45,259.81 "/>
<polygon class="st1" points="45,207.85 45,155.88 0,181.86 45,207.85 "/>
<polygon class="st0" points="45,155.88 45,103.92 0,129.9 45,155.88 "/>
<polygon class="st1" points="45,103.92 45,51.96 0,77.94 45,103.92 "/>
<polygon class="st4" points="45,51.96 45,0 45,0 0,25.98 45,51.96 "/>
<g>
</g>
<g>
</g>
<g>
</g>
<g>
</g>
<g>
</g>
<g>
</g>
</svg>
