<?xml version="1.0" encoding="utf-8"?>
<!-- Generator: Adobe Illustrator 22.1.0, SVG Export Plug-In . SVG Version: 6.00 Build 0)  -->
<svg version="1.1" id="Layer_1" xmlns="http://www.w3.org/2000/svg" xmlns:xlink="http://www.w3.org/1999/xlink" x="0px" y="0px"
	 viewBox="0 0 831.45 540" style="enable-background:new 0 0 831.45 540;" xml:space="preserve">
<style type="text/css">
	.st0{opacity:0.06;fill:#BCBEC0;stroke:#FFFFFF;stroke-width:0.5;stroke-miterlimit:10;}
	.st1{opacity:0.06;fill:#D1D3D4;stroke:#FFFFFF;stroke-width:0.5;stroke-miterlimit:10;}
	.st2{opacity:0.06;fill:#E6E7E8;stroke:#FFFFFF;stroke-width:0.5;stroke-miterlimit:10;}
	.st3{opacity:0.06;fill:#A7A9AC;stroke:#FFFFFF;stroke-width:0.5;stroke-miterlimit:10;}
	.st4{opacity:0.06;fill:#F1F2F2;stroke:#FFFFFF;stroke-width:0.5;stroke-miterlimit:10;}
</style>
<polygon class="st0" points="52.08,315 52.08,315 78.06,360 "/>
<polygon class="st1" points="701.6,270 675.62,225 701.6,270 "/>
<polygon class="st2" points="207.96,315 233.94,360 207.96,315 "/>
<polygon class="st1" points="701.6,360 675.62,315 701.6,360 "/>
<polygon class="st3" points="675.62,315 649.64,270 675.62,315 "/>
<polygon class="st0" points="78.06,450 104.04,495 78.06,450 "/>
<polygon class="st1" points="181.98,270 207.96,315 181.98,270 "/>
<polygon class="st3" points="181.98,180 207.96,225 181.98,180 "/>
<polygon class="st0" points="52.08,225 52.08,225 78.06,270 "/>
<polygon class="st1" points="130.02,360 156,405 130.02,360 "/>
<polygon class="st1" points="130.02,180 156,225 130.02,180 "/>
<polygon class="st0" points="701.6,180 675.62,135 701.6,180 "/>
<polygon class="st3" points="52.08,405 52.08,405 78.06,450 "/>
<polygon class="st0" points="104.04,135 130.02,180 104.04,135 "/>
<polygon class="st3" points="0.12,495 26.1,540 0.12,495 "/>
<polygon class="st4" points="26.1,360 52.08,405 26.1,360 "/>
<polygon class="st4" points="26.1,270 52.08,315 26.1,270 "/>
<polygon class="st1" points="805.53,270 779.54,225 805.53,270 "/>
<polygon class="st0" points="805.53,180 779.55,135 805.53,180 "/>
<polygon class="st1" points="805.53,90 779.55,45 805.53,90 "/>
<polygon class="st0" points="26.1,180 52.08,225 26.1,180 "/>
<polygon class="st0" points="233.94,270 259.93,315 233.94,270 "/>
<polygon class="st4" points="649.64,450 675.62,495 675.62,495 "/>
<polygon class="st2" points="545.71,450 571.7,495 571.7,495 "/>
<polygon class="st0" points="26.1,450 52.08,495 26.1,450 "/>
<polygon class="st1" points="831.51,495 831.51,495 831.51,495 "/>
<polygon class="st4" points="779.54,405 753.56,360 779.54,405 "/>
<polygon class="st0" points="181.98,450 207.96,495 181.98,450 "/>
<polygon class="st1" points="78.06,180 104.04,225 78.06,180 "/>
<polygon class="st2" points="52.08,135 78.06,180 52.08,135 "/>
<polygon class="st1" points="130.02,450 156,495 130.02,450 "/>
<polygon class="st2" points="779.54,315 753.56,270 779.54,315 "/>
<polygon class="st2" points="233.94,450 259.92,495 233.94,450 "/>
<polygon class="st1" points="104.04,405 130.02,450 104.04,405 "/>
<polygon class="st0" points="805.53,360 779.54,315 805.53,360 "/>
<polygon class="st1" points="78.06,270 104.04,315 78.06,270 "/>
<polygon class="st2" points="78.06,360 104.04,405 78.06,360 "/>
<polygon class="st4" points="130.02,270 156,315 130.02,270 "/>
<polygon class="st1" points="259.93,135 233.95,90 233.95,90 "/>
<polygon class="st1" points="207.97,135 181.98,90 181.98,90 "/>
<polygon class="st0" points="78.06,90 78.06,90 104.04,135 "/>
<polygon class="st4" points="156,135 130.02,90 130.02,90 "/>
<polygon class="st0" points="597.68,90 571.7,45 597.68,90 "/>
<polygon class="st1" points="571.7,135 545.72,90 571.7,135 "/>
<polygon class="st1" points="545.72,360 571.7,405 571.7,405 "/>
<polygon class="st0" points="181.98,360 207.96,405 181.98,360 "/>
<polygon class="st2" points="233.94,360 259.93,405 233.94,360 "/>
<polygon class="st1" points="649.64,360 675.62,405 675.62,405 "/>
<polygon class="st3" points="675.62,135 649.64,90 675.62,135 "/>
<polygon class="st2" points="259.93,405 285.91,450 259.93,405 "/>
<polygon class="st0" points="675.62,405 701.6,450 701.6,450 "/>
<polygon class="st2" points="571.7,405 597.68,450 597.68,450 "/>
<polygon class="st0" points="104.04,225 104.04,225 130.02,270 "/>
<polygon class="st0" points="779.54,405 805.53,450 805.53,450 "/>
<polygon class="st2" points="753.56,180 779.54,225 779.54,225 "/>
<polygon class="st3" points="156,405 181.98,450 156,405 "/>
<polygon class="st0" points="104.04,315 104.04,315 130.02,360 "/>
<polygon class="st1" points="701.6,90 675.62,45 701.6,90 "/>
<polygon class="st1" points="207.96,405 233.94,450 207.96,405 "/>
<polygon class="st0" points="233.95,90 207.97,45 207.97,45 "/>
<polygon class="st3" points="156,315 156,315 181.98,360 "/>
<polygon class="st0" points="207.96,225 207.96,225 233.94,270 "/>
<polygon class="st3" points="571.7,315 597.68,360 597.68,360 "/>
<polygon class="st2" points="26.1,90 26.1,90 52.08,135 "/>
<polygon class="st1" points="78.06,90 52.08,45 52.08,45 "/>
<polygon class="st2" points="259.93,315 285.91,360 259.93,315 "/>
<polygon class="st0" points="545.72,270 571.7,315 571.7,315 "/>
<polygon class="st4" points="259.93,225 233.95,180 233.95,180 "/>
<polygon class="st3" points="753.57,90 779.55,135 779.55,135 "/>
<polygon class="st1" points="571.7,225 545.72,180 571.7,225 "/>
<polygon class="st3" points="649.64,180 675.62,225 675.62,225 "/>
<polygon class="st1" points="181.98,180 156,135 156,135 "/>
<polygon class="st0" points="285.91,90 259.93,45 259.93,45 "/>
<polygon class="st3" points="156,225 156,225 181.98,270 "/>
<polygon class="st2" points="233.95,180 207.97,135 207.97,135 "/>
<polygon class="st2" points="285.91,180 259.93,135 259.93,135 "/>
<polygon class="st2" points="597.68,180 571.7,135 597.68,180 "/>
<polygon class="st4" points="181.98,90 156,45 156,45 "/>
<polygon class="st1" points="130.02,90 104.04,45 104.04,45 "/>
<polygon class="st2" points="597.68,270 571.7,225 597.68,270 "/>
<polygon class="st1" points="259.93,225 259.93,225 285.91,270 "/>
<polygon class="st1" points="0.12,405 0.12,405 26.1,450 "/>
<polygon class="st2" points="831.51,315 831.51,315 831.51,315 "/>
<polygon class="st3" points="675.62,45 649.64,0 675.62,45 "/>
<polygon class="st1" points="156,45 130.02,0 130.02,0 "/>
<polygon class="st4" points="259.92,495 285.9,540 259.92,495 "/>
<polygon class="st1" points="0.12,315 0.12,315 26.1,360 "/>
<polygon class="st4" points="26.1,180 0.12,135 0.12,135 0.12,135 0.12,135 "/>
<polygon class="st2" points="156,495 181.98,540 156,495 "/>
<polygon class="st1" points="26.1,90 0.12,45 0.12,45 0.12,45 0.12,45 "/>
<polygon class="st0" points="52.08,45 26.1,0 26.1,0 "/>
<polygon class="st1" points="259.93,45 233.95,0 233.95,0 "/>
<polygon class="st2" points="0.12,225 0.12,225 26.1,270 "/>
<polygon class="st2" points="779.55,45 753.57,0 779.55,45 "/>
<polygon class="st3" points="104.04,45 78.06,0 78.06,0 "/>
<polygon class="st3" points="571.7,45 545.72,0 571.7,45 "/>
<polygon class="st1" points="104.04,495 130.02,540 104.04,495 "/>
<polygon class="st0" points="779.54,495 805.52,540 805.52,540 "/>
<polygon class="st2" points="753.56,450 779.54,495 779.54,495 "/>
<polygon class="st0" points="207.96,495 233.94,540 207.96,495 "/>
<polygon class="st1" points="207.97,45 181.99,0 181.99,0 "/>
<polygon class="st2" points="52.08,495 78.06,540 52.08,495 "/>
<polygon class="st0" points="675.62,495 701.6,540 701.6,540 "/>
<polygon class="st4" points="831.51,405 831.51,405 831.51,405 "/>
<polygon class="st3" points="571.7,495 597.68,540 597.68,540 "/>
<polygon class="st3" points="52.08,45 26.1,0 0.12,45 "/>
<polygon class="st2" points="104.04,45 78.06,0 52.08,45 "/>
<polygon class="st0" points="156,45 130.02,0 104.04,45 "/>
<polygon class="st3" points="207.97,45 181.99,0 156,45 "/>
<polygon class="st1" points="259.93,45 233.95,0 207.97,45 "/>
<polygon class="st1" points="311.89,45 285.91,0 259.93,45 "/>
<polygon class="st4" points="363.85,45 337.87,0 311.89,45 "/>
<polygon class="st3" points="415.81,45 389.83,0 363.85,45 "/>
<polygon class="st1" points="467.78,45 441.79,0 415.81,45 "/>
<polygon class="st2" points="519.74,45 493.76,0 467.78,45 "/>
<polygon class="st1" points="571.7,45 545.72,0 519.74,45 "/>
<polygon class="st0" points="623.66,45 597.68,0 571.7,45 "/>
<polygon class="st1" points="571.7,45 571.7,45 571.7,45 "/>
<polygon class="st0" points="675.62,45 649.64,0 623.66,45 "/>
<polygon class="st0" points="727.59,45 701.61,0 675.62,45 "/>
<polygon class="st2" points="675.62,45 675.62,45 675.62,45 "/>
<polygon class="st2" points="779.55,45 753.57,0 727.59,45 "/>
<polygon class="st0" points="831.51,45 831.51,45 805.53,0 779.55,45 "/>
<polygon class="st1" points="779.55,45 779.55,45 779.55,45 "/>
<polygon class="st0" points="831.51,0 805.53,0 831.51,45 "/>
<polygon class="st0" points="779.55,45 805.53,0 753.57,0 779.55,45 "/>
<polygon class="st2" points="753.57,0 701.61,0 727.59,45 "/>
<polygon class="st2" points="675.62,45 701.61,0 649.64,0 675.62,45 "/>
<polygon class="st0" points="649.64,0 597.68,0 623.66,45 "/>
<polygon class="st2" points="571.7,45 597.68,0 545.72,0 571.7,45 "/>
<polygon class="st1" points="545.72,0 493.76,0 519.74,45 "/>
<polygon class="st0" points="493.76,0 441.79,0 467.78,45 "/>
<polygon class="st2" points="441.79,0 389.83,0 415.81,45 "/>
<polygon class="st1" points="389.83,0 337.87,0 363.85,45 "/>
<polygon class="st3" points="337.87,0 285.91,0 311.89,45 "/>
<polygon class="st3" points="285.91,0 233.95,0 259.93,45 "/>
<polygon class="st0" points="233.95,0 233.95,0 181.99,0 207.97,45 "/>
<polygon class="st1" points="181.99,0 181.99,0 130.02,0 156,45 "/>
<polygon class="st1" points="130.02,0 130.02,0 78.06,0 104.04,45 "/>
<polygon class="st0" points="78.06,0 78.06,0 26.1,0 52.08,45 "/>
<polygon class="st3" points="26.1,0 26.1,0 0.12,0 0.12,45 0.12,45 "/>
<polygon class="st2" points="26.1,90 0.12,45 0.12,45 0.12,90 "/>
<polygon class="st2" points="78.06,90 52.08,45 26.1,90 "/>
<polygon class="st1" points="130.02,90 104.04,45 78.06,90 "/>
<polygon class="st1" points="181.98,90 156,45 130.02,90 "/>
<polygon class="st2" points="233.95,90 207.97,45 181.98,90 "/>
<polygon class="st3" points="259.93,45 233.95,90 285.91,90 "/>
<polygon class="st2" points="337.87,90 311.89,45 285.91,90 "/>
<polygon class="st1" points="389.83,90 363.85,45 337.87,90 "/>
<polygon class="st1" points="441.79,90 415.81,45 389.83,90 "/>
<polygon class="st2" points="493.76,90 467.78,45 441.79,90 "/>
<polygon class="st0" points="545.72,90 519.74,45 493.76,90 "/>
<polygon class="st2" points="597.68,90 571.7,45 545.72,90 "/>
<polygon class="st3" points="649.64,90 623.66,45 597.68,90 "/>
<polygon class="st0" points="597.68,90 597.68,90 597.68,90 "/>
<polygon class="st0" points="701.6,90 675.62,45 649.64,90 "/>
<polygon class="st0" points="753.57,90 727.59,45 701.61,90 "/>
<polygon class="st2" points="701.6,90 701.6,90 701.61,90 "/>
<polygon class="st2" points="805.53,90 779.55,45 753.57,90 "/>
<polygon class="st2" points="805.53,90 805.53,90 805.53,90 "/>
<polygon class="st0" points="831.51,90 831.51,45 805.53,90 "/>
<polygon class="st4" points="779.55,45 805.53,90 805.53,90 831.51,45 831.51,45 779.55,45 "/>
<polygon class="st0" points="779.55,45 727.59,45 753.57,90 "/>
<polygon class="st2" points="701.61,90 727.59,45 675.62,45 675.62,45 701.6,90 "/>
<polygon class="st1" points="675.62,45 623.66,45 649.64,90 "/>
<polygon class="st0" points="597.68,90 623.66,45 571.7,45 571.7,45 597.68,90 "/>
<polygon class="st2" points="571.7,45 519.74,45 545.72,90 "/>
<polygon class="st1" points="519.74,45 467.78,45 493.76,90 "/>
<polygon class="st1" points="467.78,45 415.81,45 441.79,90 "/>
<polygon class="st4" points="415.81,45 363.85,45 389.83,90 "/>
<polygon class="st0" points="363.85,45 311.89,45 337.87,90 "/>
<polygon class="st2" points="311.89,45 259.93,45 285.91,90 "/>
<polygon class="st1" points="259.93,45 259.93,45 207.97,45 233.95,90 "/>
<polygon class="st1" points="207.97,45 207.97,45 156,45 181.98,90 "/>
<polygon class="st0" points="156,45 156,45 104.04,45 130.02,90 "/>
<polygon class="st1" points="104.04,45 104.04,45 52.08,45 78.06,90 "/>
<polygon class="st0" points="52.08,45 0.12,45 26.1,90 52.08,45 "/>
<polygon class="st1" points="52.08,135 26.1,90 0.12,135 "/>
<polygon class="st0" points="104.04,135 78.06,90 52.08,135 "/>
<polygon class="st1" points="156,135 130.02,90 104.04,135 "/>
<polygon class="st0" points="207.97,135 181.98,90 156,135 "/>
<polygon class="st2" points="259.93,135 233.95,90 207.97,135 "/>
<polygon class="st0" points="311.89,135 285.91,90 259.93,135 "/>
<polygon class="st3" points="363.85,135 337.87,90 311.89,135 "/>
<polygon class="st2" points="415.81,135 389.83,90 363.85,135 "/>
<polygon class="st2" points="467.78,135 441.79,90 415.81,135 "/>
<polygon class="st2" points="519.74,135 493.76,90 467.78,135 "/>
<polygon class="st0" points="571.7,135 545.72,90 519.74,135 "/>
<polygon class="st4" points="571.7,135 571.7,135 571.7,135 "/>
<polygon class="st0" points="623.66,135 597.68,90 571.7,135 "/>
<polygon class="st2" points="675.62,135 649.64,90 623.66,135 "/>
<polygon class="st0" points="727.58,135 701.6,90 675.62,135 "/>
<polygon class="st0" points="675.62,135 675.62,135 675.62,135 "/>
<polygon class="st0" points="727.58,135 779.55,135 753.57,90 "/>
<polygon class="st0" points="779.55,135 831.51,135 831.51,135 805.53,90 "/>
<polygon class="st1" points="779.55,135 779.55,135 779.55,135 "/>
<polygon class="st2" points="805.53,90 831.51,135 831.51,90 805.53,90 "/>
<polygon class="st0" points="779.55,135 779.55,135 805.53,90 753.57,90 "/>
<polygon class="st3" points="753.57,90 701.61,90 701.6,90 727.58,135 "/>
<polygon class="st3" points="675.62,135 701.6,90 649.64,90 675.62,135 "/>
<polygon class="st2" points="649.64,90 597.68,90 597.68,90 623.66,135 "/>
<polygon class="st1" points="571.7,135 597.68,90 545.72,90 571.7,135 "/>
<polygon class="st0" points="545.72,90 493.76,90 519.74,135 "/>
<polygon class="st1" points="493.76,90 441.79,90 467.78,135 "/>
<polygon class="st1" points="441.79,90 389.83,90 415.81,135 "/>
<polygon class="st2" points="389.83,90 337.87,90 363.85,135 "/>
<polygon class="st0" points="337.87,90 285.91,90 311.89,135 "/>
<polygon class="st1" points="285.91,90 233.95,90 259.93,135 "/>
<polygon class="st2" points="233.95,90 233.95,90 181.98,90 207.97,135 "/>
<polygon class="st3" points="181.98,90 181.98,90 130.02,90 156,135 "/>
<polygon class="st2" points="130.02,90 130.02,90 78.06,90 104.04,135 "/>
<polygon class="st0" points="78.06,90 78.06,90 26.1,90 52.08,135 "/>
<polygon class="st0" points="26.1,90 26.1,90 0.12,90 0.12,135 0.12,135 "/>
<polygon class="st1" points="26.1,180 0.12,135 0.12,135 0.12,180 "/>
<polygon class="st4" points="78.06,180 52.08,135 26.1,180 "/>
<polygon class="st2" points="130.02,180 104.04,135 78.06,180 "/>
<polygon class="st3" points="181.98,180 156,135 130.02,180 "/>
<polygon class="st0" points="233.95,180 207.97,135 181.98,180 "/>
<polygon class="st0" points="259.93,135 233.95,180 285.91,180 "/>
<polygon class="st2" points="337.87,180 311.89,135 285.91,180 "/>
<polygon class="st1" points="389.83,180 363.85,135 337.87,180 "/>
<polygon class="st1" points="441.79,180 415.81,135 389.83,180 "/>
<polygon class="st4" points="493.76,180 467.78,135 441.79,180 "/>
<polygon class="st0" points="545.72,180 519.74,135 493.76,180 "/>
<polygon class="st1" points="597.68,180 571.7,135 545.72,180 "/>
<polygon class="st3" points="597.68,180 597.68,180 597.68,180 "/>
<polygon class="st2" points="649.64,180 623.66,135 597.68,180 "/>
<polygon class="st0" points="701.6,180 675.62,135 649.64,180 "/>
<polygon class="st4" points="753.56,180 727.58,135 701.6,180 "/>
<polygon class="st0" points="701.6,180 701.6,180 701.6,180 "/>
<polygon class="st4" points="805.53,180 779.55,135 753.56,180 "/>
<polygon class="st1" points="831.51,180 831.51,135 805.53,180 "/>
<polygon class="st1" points="805.53,180 805.53,180 805.53,180 "/>
<polygon class="st1" points="779.55,135 805.53,180 805.53,180 831.51,135 831.51,135 779.55,135 "/>
<polygon class="st0" points="753.56,180 779.55,135 727.58,135 "/>
<polygon class="st2" points="675.62,135 701.6,180 701.6,180 727.58,135 675.62,135 "/>
<polygon class="st4" points="675.62,135 623.66,135 649.64,180 "/>
<polygon class="st1" points="597.68,180 623.66,135 571.7,135 571.7,135 597.68,180 "/>
<polygon class="st2" points="571.7,135 519.74,135 545.72,180 "/>
<polygon class="st0" points="519.74,135 467.78,135 493.76,180 "/>
<polygon class="st3" points="467.78,135 415.81,135 441.79,180 "/>
<polygon class="st1" points="415.81,135 363.85,135 389.83,180 "/>
<polygon class="st1" points="363.85,135 311.89,135 337.87,180 "/>
<polygon class="st1" points="311.89,135 259.93,135 285.91,180 "/>
<polygon class="st1" points="259.93,135 259.93,135 207.97,135 233.95,180 "/>
<polygon class="st2" points="207.97,135 207.97,135 156,135 181.98,180 "/>
<polygon class="st3" points="156,135 104.04,135 130.02,180 156,135 "/>
<polygon class="st2" points="104.04,135 52.08,135 78.06,180 104.04,135 "/>
<polygon class="st0" points="52.08,135 0.12,135 26.1,180 52.08,135 "/>
<polygon class="st3" points="52.08,225 26.1,180 0.12,225 "/>
<polygon class="st4" points="104.04,225 78.06,180 52.08,225 "/>
<polygon class="st3" points="156,225 130.02,180 104.04,225 "/>
<polygon class="st0" points="207.96,225 181.98,180 156,225 "/>
<polygon class="st2" points="259.93,225 233.95,180 207.96,225 "/>
<polygon class="st0" points="311.89,225 285.91,180 259.93,225 "/>
<polygon class="st4" points="363.85,225 337.87,180 311.89,225 "/>
<polygon class="st4" points="415.81,225 389.83,180 363.85,225 "/>
<polygon class="st0" points="467.77,225 441.79,180 415.81,225 "/>
<polygon class="st3" points="519.74,225 493.76,180 467.77,225 "/>
<polygon class="st0" points="571.7,225 545.72,180 519.74,225 "/>
<polygon class="st0" points="623.66,225 597.68,180 571.7,225 "/>
<polygon class="st4" points="571.7,225 571.7,225 571.7,225 "/>
<polygon class="st2" points="623.66,225 675.62,225 649.64,180 "/>
<polygon class="st3" points="675.62,225 727.58,225 701.6,180 "/>
<polygon class="st4" points="675.62,225 675.62,225 675.62,225 "/>
<polygon class="st0" points="727.58,225 779.54,225 753.56,180 "/>
<polygon class="st0" points="779.55,225 831.51,225 805.53,180 "/>
<polygon class="st3" points="779.54,225 779.55,225 779.54,225 "/>
<polygon class="st3" points="805.53,180 831.51,225 831.51,180 805.53,180 "/>
<polygon class="st2" points="779.54,225 779.55,225 805.53,180 753.56,180 "/>
<polygon class="st2" points="701.6,180 727.58,225 753.56,180 701.6,180 "/>
<polygon class="st2" points="675.62,225 675.62,225 701.6,180 649.64,180 "/>
<polygon class="st3" points="649.64,180 597.68,180 597.68,180 623.66,225 "/>
<polygon class="st4" points="571.7,225 597.68,180 545.72,180 571.7,225 "/>
<polygon class="st1" points="545.72,180 493.76,180 519.74,225 "/>
<polygon class="st4" points="493.76,180 441.79,180 467.77,225 "/>
<polygon class="st1" points="441.79,180 389.83,180 415.81,225 "/>
<polygon class="st3" points="389.83,180 337.87,180 363.85,225 "/>
<polygon class="st0" points="337.87,180 285.91,180 311.89,225 "/>
<polygon class="st4" points="285.91,180 233.95,180 259.93,225 "/>
<polygon class="st3" points="233.95,180 181.98,180 207.96,225 233.95,180 "/>
<polygon class="st1" points="181.98,180 130.02,180 156,225 181.98,180 "/>
<polygon class="st0" points="130.02,180 78.06,180 104.04,225 130.02,180 "/>
<polygon class="st0" points="78.06,180 26.1,180 52.08,225 78.06,180 "/>
<polygon class="st4" points="26.1,180 0.12,180 0.12,225 26.1,180 "/>
<polygon class="st2" points="26.1,270 0.12,225 0.12,270 "/>
<polygon class="st2" points="78.06,270 52.08,225 26.1,270 "/>
<polygon class="st0" points="130.02,270 104.04,225 78.06,270 "/>
<polygon class="st0" points="181.98,270 156,225 130.02,270 "/>
<polygon class="st0" points="233.94,270 207.96,225 181.98,270 "/>
<polygon class="st1" points="259.93,225 233.94,270 285.91,270 "/>
<polygon class="st3" points="337.87,270 311.89,225 285.91,270 "/>
<polygon class="st1" points="389.83,270 363.85,225 337.87,270 "/>
<polygon class="st0" points="441.79,270 415.81,225 389.83,270 "/>
<polygon class="st1" points="493.75,270 467.77,225 441.79,270 "/>
<polygon class="st3" points="545.72,270 519.74,225 493.75,270 "/>
<polygon class="st4" points="597.68,270 571.7,225 545.72,270 "/>
<polygon class="st0" points="597.68,270 597.68,270 597.68,270 "/>
<polygon class="st1" points="649.64,270 623.66,225 597.68,270 "/>
<polygon class="st1" points="701.6,270 675.62,225 649.64,270 "/>
<polygon class="st1" points="753.56,270 727.58,225 701.6,270 "/>
<polygon class="st2" points="701.6,270 701.6,270 701.6,270 "/>
<polygon class="st0" points="805.53,270 779.54,225 753.56,270 "/>
<polygon class="st4" points="831.51,270 831.51,225 805.53,270 "/>
<polygon class="st0" points="805.53,270 805.53,270 805.53,270 "/>
<polygon class="st0" points="779.54,225 805.53,270 805.53,270 831.51,225 779.55,225 "/>
<polygon class="st2" points="753.56,270 779.54,225 727.58,225 "/>
<polygon class="st2" points="675.62,225 701.6,270 701.6,270 727.58,225 675.62,225 "/>
<polygon class="st2" points="649.64,270 675.62,225 623.66,225 "/>
<polygon class="st1" points="571.7,225 597.68,270 597.68,270 623.66,225 571.7,225 "/>
<polygon class="st1" points="571.7,225 519.74,225 545.72,270 "/>
<polygon class="st4" points="519.74,225 467.77,225 493.75,270 "/>
<polygon class="st3" points="467.77,225 415.81,225 441.79,270 "/>
<polygon class="st1" points="415.81,225 363.85,225 389.83,270 "/>
<polygon class="st2" points="363.85,225 311.89,225 337.87,270 "/>
<polygon class="st4" points="311.89,225 259.93,225 285.91,270 "/>
<polygon class="st2" points="259.93,225 259.93,225 207.96,225 233.94,270 "/>
<polygon class="st3" points="207.96,225 207.96,225 156,225 181.98,270 "/>
<polygon class="st2" points="156,225 156,225 104.04,225 130.02,270 "/>
<polygon class="st1" points="104.04,225 104.04,225 52.08,225 78.06,270 "/>
<polygon class="st0" points="52.08,225 52.08,225 0.12,225 26.1,270 "/>
<polygon class="st2" points="26.1,270 0.12,315 0.12,315 52.08,315 "/>
<polygon class="st1" points="78.06,270 52.08,315 52.08,315 104.04,315 "/>
<polygon class="st1" points="130.02,270 104.04,315 104.04,315 156,315 "/>
<polygon class="st0" points="181.98,270 156,315 156,315 207.96,315 "/>
<polygon class="st1" points="233.94,270 207.96,315 207.96,315 259.93,315 "/>
<polygon class="st1" points="259.93,315 259.93,315 311.89,315 285.91,270 "/>
<polygon class="st3" points="311.89,315 311.89,315 363.85,315 337.87,270 "/>
<polygon class="st1" points="363.85,315 363.85,315 415.81,315 389.83,270 "/>
<polygon class="st3" points="415.81,315 415.81,315 467.77,315 441.79,270 "/>
<polygon class="st0" points="467.77,315 467.77,315 519.73,315 493.75,270 "/>
<polygon class="st1" points="519.73,315 519.74,315 571.7,315 545.72,270 "/>
<polygon class="st4" points="571.7,315 623.66,315 597.68,270 "/>
<polygon class="st4" points="571.7,315 571.7,315 571.7,315 "/>
<polygon class="st3" points="623.66,315 675.62,315 649.64,270 623.66,315 "/>
<polygon class="st1" points="727.58,315 701.6,270 675.62,315 "/>
<polygon class="st4" points="675.62,315 675.62,315 675.62,315 "/>
<polygon class="st3" points="727.58,315 779.54,315 753.56,270 727.58,315 "/>
<polygon class="st1" points="831.51,315 805.53,270 779.54,315 "/>
<polygon class="st1" points="779.54,315 779.54,315 779.54,315 "/>
<polygon class="st1" points="805.53,270 831.51,315 831.51,315 831.51,270 805.53,270 "/>
<polygon class="st2" points="779.54,315 779.54,315 805.53,270 753.56,270 "/>
<polygon class="st1" points="701.6,270 727.58,315 753.56,270 701.6,270 "/>
<polygon class="st2" points="675.62,315 675.62,315 701.6,270 649.64,270 "/>
<polygon class="st1" points="597.68,270 623.66,315 649.64,270 597.68,270 "/>
<polygon class="st1" points="545.72,270 571.7,315 571.7,315 597.68,270 "/>
<polygon class="st4" points="493.75,270 519.73,315 545.72,270 "/>
<polygon class="st0" points="441.79,270 467.77,315 493.75,270 "/>
<polygon class="st3" points="389.83,270 415.81,315 441.79,270 "/>
<polygon class="st0" points="337.87,270 363.85,315 389.83,270 "/>
<polygon class="st0" points="285.91,270 311.89,315 337.87,270 "/>
<polygon class="st4" points="233.94,270 259.93,315 285.91,270 "/>
<polygon class="st0" points="233.94,270 181.98,270 207.96,315 233.94,270 "/>
<polygon class="st3" points="181.98,270 130.02,270 156,315 181.98,270 "/>
<polygon class="st3" points="130.02,270 78.06,270 104.04,315 130.02,270 "/>
<polygon class="st3" points="78.06,270 26.1,270 52.08,315 78.06,270 "/>
<polygon class="st3" points="26.1,270 0.12,270 0.12,315 26.1,270 "/>
<polygon class="st1" points="26.1,360 0.12,315 0.12,360 "/>
<polygon class="st4" points="78.06,360 52.08,315 26.1,360 "/>
<polygon class="st3" points="130.02,360 104.04,315 78.06,360 "/>
<polygon class="st2" points="181.98,360 156,315 130.02,360 "/>
<polygon class="st3" points="181.98,360 233.94,360 207.96,315 "/>
<polygon class="st0" points="233.94,360 285.91,360 259.93,315 "/>
<polygon class="st0" points="285.91,360 337.87,360 311.89,315 "/>
<polygon class="st0" points="337.87,360 389.83,360 363.85,315 "/>
<polygon class="st0" points="389.83,360 441.79,360 415.81,315 "/>
<polygon class="st0" points="441.79,360 493.75,360 467.77,315 "/>
<polygon class="st1" points="493.75,360 545.72,360 519.74,315 "/>
<polygon class="st4" points="545.72,360 597.68,360 571.7,315 "/>
<polygon class="st1" points="597.68,360 597.68,360 597.68,360 "/>
<polygon class="st2" points="597.68,360 649.64,360 623.66,315 "/>
<polygon class="st2" points="701.6,360 675.62,315 649.64,360 "/>
<polygon class="st4" points="701.6,360 701.6,360 701.6,360 "/>
<polygon class="st0" points="753.56,360 727.58,315 701.6,360 "/>
<polygon class="st1" points="805.53,360 779.54,315 753.56,360 "/>
<polygon class="st0" points="831.51,360 831.51,315 805.53,360 "/>
<polygon class="st0" points="805.53,360 805.53,360 805.53,360 "/>
<polygon class="st0" points="779.54,315 805.53,360 805.53,360 831.51,315 831.51,315 "/>
<polygon class="st2" points="727.58,315 753.56,360 779.54,315 779.54,315 "/>
<polygon class="st2" points="675.62,315 701.6,360 701.6,360 727.58,315 727.58,315 "/>
<polygon class="st1" points="623.66,315 649.64,360 675.62,315 675.62,315 "/>
<polygon class="st3" points="623.66,315 571.7,315 597.68,360 597.68,360 623.66,315 "/>
<polygon class="st0" points="571.7,315 519.74,315 545.72,360 571.7,315 "/>
<polygon class="st1" points="519.73,315 467.77,315 493.75,360 519.74,315 "/>
<polygon class="st1" points="467.77,315 415.81,315 441.79,360 467.77,315 "/>
<polygon class="st0" points="415.81,315 363.85,315 389.83,360 415.81,315 "/>
<polygon class="st1" points="363.85,315 311.89,315 337.87,360 363.85,315 "/>
<polygon class="st1" points="311.89,315 259.93,315 285.91,360 311.89,315 "/>
<polygon class="st0" points="259.93,315 259.93,315 207.96,315 233.94,360 259.93,315 "/>
<polygon class="st4" points="207.96,315 207.96,315 207.96,315 156,315 181.98,360 "/>
<polygon class="st0" points="156,315 156,315 156,315 104.04,315 130.02,360 "/>
<polygon class="st4" points="104.04,315 104.04,315 104.04,315 52.08,315 78.06,360 "/>
<polygon class="st1" points="52.08,315 52.08,315 52.08,315 0.12,315 26.1,360 "/>
<polygon class="st3" points="52.08,405 26.1,360 0.12,405 0.12,405 "/>
<polygon class="st1" points="104.04,405 78.06,360 52.08,405 "/>
<polygon class="st2" points="156,405 130.02,360 104.04,405 "/>
<polygon class="st2" points="156,405 207.96,405 181.98,360 "/>
<polygon class="st0" points="207.96,405 259.93,405 233.94,360 "/>
<polygon class="st1" points="259.93,405 311.89,405 285.91,360 "/>
<polygon class="st1" points="311.89,405 363.85,405 337.87,360 "/>
<polygon class="st4" points="363.85,405 415.81,405 389.83,360 "/>
<polygon class="st1" points="415.81,405 467.77,405 441.79,360 "/>
<polygon class="st2" points="467.77,405 519.73,405 493.75,360 "/>
<polygon class="st1" points="519.73,405 571.7,405 545.72,360 "/>
<polygon class="st4" points="571.7,405 623.66,405 597.68,360 "/>
<polygon class="st1" points="571.7,405 571.7,405 571.7,405 "/>
<polygon class="st2" points="623.66,405 675.62,405 649.64,360 "/>
<polygon class="st4" points="675.62,405 675.62,405 675.62,405 "/>
<polygon class="st1" points="675.62,405 727.58,405 701.6,360 "/>
<polygon class="st3" points="779.54,405 753.56,360 727.58,405 "/>
<polygon class="st1" points="831.51,405 805.53,360 779.54,405 "/>
<polygon class="st0" points="779.54,405 779.54,405 779.54,405 "/>
<polygon class="st0" points="805.53,360 831.51,405 831.51,405 831.51,360 805.53,360 "/>
<polygon class="st0" points="779.54,405 779.54,405 805.53,360 753.56,360 "/>
<polygon class="st1" points="701.6,360 727.58,405 753.56,360 701.6,360 "/>
<polygon class="st0" points="649.64,360 675.62,405 675.62,405 701.6,360 "/>
<polygon class="st2" points="597.68,360 597.68,360 623.66,405 649.64,360 "/>
<polygon class="st0" points="545.72,360 571.7,405 571.7,405 597.68,360 "/>
<polygon class="st1" points="493.75,360 519.73,405 545.72,360 "/>
<polygon class="st0" points="441.79,360 467.77,405 493.75,360 "/>
<polygon class="st0" points="389.83,360 415.81,405 441.79,360 "/>
<polygon class="st3" points="337.87,360 363.85,405 389.83,360 "/>
<polygon class="st3" points="285.91,360 311.89,405 337.87,360 "/>
<polygon class="st2" points="233.94,360 259.93,405 285.91,360 "/>
<polygon class="st4" points="233.94,360 181.98,360 207.96,405 233.94,360 "/>
<polygon class="st0" points="181.98,360 130.02,360 156,405 181.98,360 "/>
<polygon class="st0" points="130.02,360 78.06,360 104.04,405 130.02,360 "/>
<polygon class="st0" points="78.06,360 26.1,360 52.08,405 78.06,360 "/>
<polygon class="st4" points="26.1,360 0.12,360 0.12,405 26.1,360 "/>
<polygon class="st3" points="26.1,450 0.12,405 0.12,450 "/>
<polygon class="st0" points="78.06,450 52.08,405 26.1,450 "/>
<polygon class="st2" points="78.06,450 130.02,450 104.04,405 "/>
<polygon class="st0" points="130.02,450 181.98,450 156,405 "/>
<polygon class="st0" points="181.98,450 233.94,450 207.96,405 "/>
<polygon class="st0" points="233.94,450 285.91,450 259.93,405 "/>
<polygon class="st0" points="285.91,450 337.87,450 311.89,405 "/>
<polygon class="st0" points="337.87,450 389.83,450 363.85,405 "/>
<polygon class="st0" points="389.83,450 441.79,450 415.81,405 "/>
<polygon class="st1" points="441.79,450 493.75,450 467.77,405 "/>
<polygon class="st2" points="493.75,450 545.71,450 519.73,405 "/>
<polygon class="st2" points="545.71,450 597.68,450 571.7,405 "/>
<polygon class="st1" points="597.68,450 597.68,450 597.68,450 "/>
<polygon class="st0" points="597.68,450 649.64,450 623.66,405 "/>
<polygon class="st2" points="649.64,450 701.6,450 675.62,405 "/>
<polygon class="st1" points="701.6,450 753.56,450 727.58,405 "/>
<polygon class="st4" points="701.6,450 701.6,450 701.6,450 "/>
<polygon class="st1" points="753.56,450 805.53,450 779.54,405 "/>
<polygon class="st2" points="805.53,450 831.51,450 831.51,405 831.51,405 "/>
<polygon class="st1" points="805.53,450 805.53,450 805.53,450 "/>
<polygon class="st4" points="779.54,405 805.53,450 805.53,450 831.51,405 779.54,405 "/>
<polygon class="st1" points="727.58,405 753.56,450 779.54,405 "/>
<polygon class="st3" points="675.62,405 675.62,405 701.6,450 701.6,450 727.58,405 "/>
<polygon class="st3" points="623.66,405 649.64,450 675.62,405 "/>
<polygon class="st2" points="571.7,405 571.7,405 597.68,450 597.68,450 623.66,405 "/>
<polygon class="st0" points="519.73,405 545.71,450 571.7,405 "/>
<polygon class="st1" points="467.77,405 493.75,450 519.73,405 "/>
<polygon class="st0" points="415.81,405 441.79,450 467.77,405 "/>
<polygon class="st1" points="363.85,405 389.83,450 415.81,405 "/>
<polygon class="st2" points="311.89,405 337.87,450 363.85,405 "/>
<polygon class="st3" points="259.93,405 285.91,450 311.89,405 "/>
<polygon class="st2" points="259.93,405 207.96,405 233.94,450 259.93,405 "/>
<polygon class="st2" points="207.96,405 156,405 181.98,450 207.96,405 "/>
<polygon class="st0" points="156,405 104.04,405 130.02,450 156,405 "/>
<polygon class="st0" points="104.04,405 104.04,405 52.08,405 78.06,450 "/>
<polygon class="st1" points="52.08,405 52.08,405 0.12,405 0.12,405 26.1,450 "/>
<polygon class="st4" points="52.08,495 26.1,450 0.12,495 0.12,495 "/>
<polygon class="st0" points="52.08,495 104.04,495 78.06,450 "/>
<polygon class="st3" points="104.04,495 156,495 130.02,450 "/>
<polygon class="st3" points="156,495 207.96,495 181.98,450 "/>
<polygon class="st4" points="207.96,495 259.92,495 233.94,450 "/>
<polygon class="st4" points="259.92,495 311.89,495 285.91,450 "/>
<polygon class="st1" points="311.89,495 363.85,495 337.87,450 "/>
<polygon class="st1" points="363.85,495 415.81,495 389.83,450 "/>
<polygon class="st4" points="415.81,495 467.77,495 441.79,450 "/>
<polygon class="st0" points="467.77,495 519.73,495 493.75,450 "/>
<polygon class="st4" points="519.73,495 571.7,495 545.71,450 "/>
<polygon class="st4" points="571.7,495 623.66,495 597.68,450 "/>
<polygon class="st0" points="571.7,495 571.7,495 571.7,495 "/>
<polygon class="st2" points="623.66,495 675.62,495 649.64,450 "/>
<polygon class="st3" points="675.62,495 675.62,495 675.62,495 "/>
<polygon class="st2" points="675.62,495 727.58,495 701.6,450 "/>
<polygon class="st0" points="727.58,495 779.54,495 753.56,450 "/>
<polygon class="st2" points="779.54,495 779.54,495 779.54,495 "/>
<polygon class="st1" points="779.54,495 831.51,495 805.53,450 "/>
<polygon class="st4" points="805.53,450 831.51,495 831.51,495 831.51,450 805.53,450 "/>
<polygon class="st4" points="753.56,450 779.54,495 779.54,495 805.53,450 "/>
<polygon class="st1" points="701.6,450 701.6,450 727.58,495 753.56,450 "/>
<polygon class="st1" points="649.64,450 675.62,495 675.62,495 701.6,450 "/>
<polygon class="st1" points="597.68,450 597.68,450 623.66,495 649.64,450 "/>
<polygon class="st0" points="545.71,450 571.7,495 571.7,495 597.68,450 "/>
<polygon class="st1" points="493.75,450 519.73,495 545.71,450 "/>
<polygon class="st2" points="441.79,450 467.77,495 493.75,450 "/>
<polygon class="st1" points="389.83,450 415.81,495 441.79,450 "/>
<polygon class="st0" points="337.87,450 363.85,495 389.83,450 "/>
<polygon class="st1" points="285.91,450 311.89,495 337.87,450 "/>
<polygon class="st0" points="233.94,450 259.92,495 285.91,450 "/>
<polygon class="st3" points="233.94,450 181.98,450 207.96,495 233.94,450 "/>
<polygon class="st2" points="181.98,450 130.02,450 156,495 181.98,450 "/>
<polygon class="st1" points="130.02,450 78.06,450 104.04,495 130.02,450 "/>
<polygon class="st2" points="78.06,450 26.1,450 52.08,495 78.06,450 "/>
<polygon class="st0" points="26.1,450 0.12,450 0.12,495 26.1,450 "/>
<polygon class="st1" points="0.12,540 26.1,540 0.12,495 "/>
<polygon class="st0" points="26.1,540 78.06,540 52.08,495 "/>
<polygon class="st0" points="78.06,540 130.02,540 104.04,495 "/>
<polygon class="st3" points="130.02,540 181.98,540 156,495 "/>
<polygon class="st0" points="181.98,540 233.94,540 207.96,495 "/>
<polygon class="st4" points="233.94,540 285.9,540 259.92,495 "/>
<polygon class="st2" points="285.9,540 337.87,540 311.89,495 "/>
<polygon class="st1" points="337.87,540 389.83,540 363.85,495 "/>
<polygon class="st1" points="389.83,540 441.79,540 415.81,495 "/>
<polygon class="st2" points="441.79,540 493.75,540 467.77,495 "/>
<polygon class="st1" points="493.75,540 545.71,540 519.73,495 "/>
<polygon class="st2" points="545.71,540 597.68,540 571.7,495 "/>
<polygon class="st1" points="597.68,540 649.64,540 623.66,495 "/>
<polygon class="st2" points="597.68,540 597.68,540 597.68,540 "/>
<polygon class="st1" points="649.64,540 701.6,540 675.62,495 "/>
<polygon class="st1" points="701.6,540 701.6,540 701.6,540 "/>
<polygon class="st1" points="701.6,540 753.56,540 727.58,495 "/>
<polygon class="st0" points="753.56,540 805.52,540 779.54,495 "/>
<polygon class="st3" points="805.52,540 805.53,540 805.52,540 "/>
<polygon class="st4" points="831.51,495 805.53,540 831.51,540 831.51,495 "/>
<polygon class="st2" points="779.54,495 779.54,495 805.52,540 805.53,540 831.51,495 "/>
<polygon class="st0" points="727.58,495 753.56,540 779.54,495 "/>
<polygon class="st2" points="675.62,495 675.62,495 701.6,540 701.6,540 727.58,495 "/>
<polygon class="st4" points="623.66,495 649.64,540 675.62,495 "/>
<polygon class="st4" points="571.7,495 571.7,495 597.68,540 597.68,540 623.66,495 "/>
<polygon class="st2" points="519.73,495 545.71,540 571.7,495 "/>
<polygon class="st4" points="467.77,495 493.75,540 519.73,495 "/>
<polygon class="st3" points="415.81,495 441.79,540 467.77,495 "/>
<polygon class="st2" points="363.85,495 389.83,540 415.81,495 "/>
<polygon class="st0" points="311.89,495 337.87,540 363.85,495 "/>
<polygon class="st1" points="259.92,495 285.9,540 311.89,495 "/>
<polygon class="st0" points="259.92,495 207.96,495 233.94,540 259.92,495 "/>
<polygon class="st1" points="207.96,495 156,495 181.98,540 207.96,495 "/>
<polygon class="st0" points="156,495 104.04,495 130.02,540 156,495 "/>
<polygon class="st1" points="104.04,495 52.08,495 78.06,540 104.04,495 "/>
<polygon class="st4" points="52.08,495 0.12,495 0.12,495 26.1,540 52.08,495 "/>
<g>
</g>
<g>
</g>
<g>
</g>
<g>
</g>
<g>
</g>
<g>
</g>
</svg>
